<svg width="16" height="16" viewBox="0 0 16 16" fill="none" xmlns="http://www.w3.org/2000/svg">
<mask id="mask0_20006_1330" style="mask-type:alpha" maskUnits="userSpaceOnUse" x="1" y="1" width="14" height="14">
<path fill-rule="evenodd" clip-rule="evenodd" d="M8.00001 1.33325C4.32001 1.33325 1.33334 4.31992 1.33334 7.99992C1.33334 11.6799 4.32001 14.6666 8.00001 14.6666C11.68 14.6666 14.6667 11.6799 14.6667 7.99992C14.6667 4.31992 11.68 1.33325 8.00001 1.33325ZM8.00001 8.66659C7.63334 8.66659 7.33334 8.36659 7.33334 7.99992V5.33325C7.33334 4.96659 7.63334 4.66659 8.00001 4.66659C8.36668 4.66659 8.66668 4.96659 8.66668 5.33325V7.99992C8.66668 8.36659 8.36668 8.66659 8.00001 8.66659ZM7.33334 9.99992V11.3333H8.66668V9.99992H7.33334Z" fill="black"/>
</mask>
<g mask="url(#mask0_20006_1330)">
<rect width="16" height="16" fill="#E1004B"/>
</g>
</svg>
